<svg width="121" height="121" viewBox="0 0 121 121" fill="none" xmlns="http://www.w3.org/2000/svg">
<path d="M59.8666 82.4398C59.6787 82.1799 59.3775 82.0261 59.0573 82.0261H48.0933V53.1212C48.0933 52.5708 47.647 52.1245 47.0966 52.1245H40.6885C41.0642 51.761 41.3985 51.3565 41.6852 50.9185C42.9749 48.926 43.1584 46.4133 42.1719 44.2544L36.0426 30.7807C35.8665 30.3923 35.4625 30.1597 35.0381 30.201C34.6133 30.2429 34.2624 30.55 34.165 30.9651L33.3878 34.2726C32.5346 37.895 30.7748 41.2409 28.2733 43.9965C28.2042 44.0734 28.1472 44.1605 28.1039 44.2544C27.1174 46.4133 27.3009 48.926 28.5906 50.9185C28.8768 51.3565 29.2111 51.761 29.5873 52.1245H23.1753C22.6249 52.1245 22.1786 52.5708 22.1786 53.1212V82.0261H12.2114V73.0556C12.2109 72.5743 11.8663 72.1621 11.3928 72.076L0.428831 70.0825L0.072094 72.0419L10.2179 73.8879V83.0229H10.2238C10.2218 83.1299 10.2369 83.236 10.2695 83.3377L12.2629 89.3181C12.3987 89.7249 12.7793 89.9999 13.2081 89.9999H57.0638C57.4926 89.9999 57.8732 89.7249 58.0085 89.3181L60.0019 83.3377C60.1036 83.034 60.0535 82.7002 59.8666 82.4398ZM30.2638 49.8391C29.3717 48.4593 29.2199 46.7277 29.8584 45.2132C32.5283 42.2303 34.4084 38.625 35.3262 34.7276L35.4357 34.2653L40.3507 45.0798C41.0511 46.6221 40.9206 48.4145 40.0037 49.8386C39.0868 51.2626 37.5095 52.124 35.8154 52.1245H34.4561C32.7605 52.1284 31.1807 51.2665 30.2657 49.8391H30.2638ZM46.0999 54.1179V62.1618C45.3197 61.8382 44.4413 61.8498 43.6699 62.1934C42.4678 62.7784 42.1057 64.0803 41.7859 65.2274C41.4949 66.2723 41.2686 66.9697 40.8043 67.1211C40.4052 67.2569 39.0518 66.7366 37.4852 66.1404C36.8101 65.8825 36.34 65.6712 35.9901 65.5116C35.3851 65.1461 34.6731 64.9987 33.9728 65.0931C32.5702 65.3359 31.7311 66.5225 30.3387 68.4896C29.9051 69.0985 29.5055 69.7306 29.1425 70.3838C28.9668 70.7425 28.7337 71.071 28.4529 71.3552C27.515 72.2594 26.3231 72.8551 25.0368 73.062C24.7526 73.1009 24.466 73.1184 24.1788 73.1145V54.1179H46.0999ZM24.172 75.107C24.1978 75.107 24.2236 75.1128 24.2494 75.1128C24.6115 75.1124 24.9731 75.0866 25.3313 75.0355C27.04 74.759 28.6227 73.9638 29.8642 72.7568C30.2696 72.3461 30.6093 71.8755 30.8717 71.3615C31.2026 70.7663 31.5666 70.191 31.9623 69.6372C33.1162 68.0063 33.7445 67.1522 34.3115 67.0534C34.4638 67.0237 34.4921 67.0228 35.1686 67.3265C35.5487 67.4982 36.0499 67.7255 36.7756 68.0005C39.1574 68.9072 40.3556 69.3671 41.4341 69.0089C42.9413 68.5018 43.3657 66.979 43.7064 65.7569C43.923 64.9763 44.1483 64.1708 44.5459 63.9757C44.6943 63.9027 45.128 63.8092 46.0999 64.3173V82.0261H24.172V75.107ZM56.345 88.0065H13.9264L12.5978 84.0196H57.6736L56.345 88.0065Z" fill="#F7654A"/>
<path d="M16.5083 36.0772L19.0297 37.3372L20.2898 39.8592C20.4582 40.1974 20.8037 40.4111 21.1818 40.4111C21.5595 40.4111 21.9051 40.1974 22.0739 39.8592L23.3335 37.3372L25.8554 36.0772C26.1937 35.9088 26.4073 35.5632 26.4073 35.1851C26.4073 34.8074 26.1937 34.4619 25.8554 34.2935L23.3335 33.0335L22.0788 30.5066C21.8914 30.1927 21.5527 30 21.1867 30C20.8207 30 20.482 30.1927 20.2946 30.5066L19.0346 33.0286L16.5131 34.2881C16.1749 34.457 15.9607 34.8026 15.9607 35.1802C15.9607 35.5584 16.1749 35.9039 16.5131 36.0723L16.5083 36.0772ZM20.2177 34.6619C20.4114 34.5665 20.5677 34.4098 20.6635 34.2166L21.1818 33.1809L21.7002 34.2166C21.7955 34.4098 21.9523 34.5665 22.1455 34.6619L23.1811 35.1802L22.1455 35.6985C21.9523 35.7944 21.7955 35.9506 21.7002 36.1443L21.1818 37.18L20.6635 36.1443C20.5677 35.9506 20.4114 35.7944 20.2177 35.6985L19.1821 35.1802L20.2177 34.6619Z" fill="#F7654A"/>
<path d="M46.4099 38.0706L48.9314 39.3306L50.1914 41.8526C50.3598 42.1908 50.7053 42.4045 51.0835 42.4045C51.4611 42.4045 51.8067 42.1908 51.9756 41.8526L53.2351 39.3306L55.7571 38.0706C56.0953 37.9022 56.309 37.5566 56.309 37.1785C56.309 36.8008 56.0953 36.4553 55.7571 36.2869L53.2351 35.0269L51.9804 32.5C51.7931 32.1861 51.4543 31.9934 51.0883 31.9934C50.7224 31.9934 50.3836 32.1861 50.1963 32.5L48.9362 35.022L46.4147 36.2815C46.0765 36.4504 45.8624 36.796 45.8624 37.1736C45.8624 37.5518 46.0765 37.8973 46.4147 38.0657L46.4099 38.0706ZM50.1194 36.6553C50.3131 36.5599 50.4693 36.4032 50.5652 36.21L51.0835 35.1743L51.6018 36.21C51.6972 36.4032 51.8539 36.5599 52.0471 36.6553L53.0828 37.1736L52.0471 37.6919C51.8539 37.7878 51.6972 37.944 51.6018 38.1377L51.0835 39.1734L50.5652 38.1377C50.4693 37.944 50.3131 37.7878 50.1194 37.6919L49.0837 37.1736L50.1194 36.6553Z" fill="#F7654A"/>
</svg>
